<svg width="270" height="84" viewBox="0 0 270 84" fill="none" xmlns="http://www.w3.org/2000/svg">
<path d="M98.4983 22.7184C97.4912 22.7184 96.6463 23.0525 95.986 23.7129C95.3309 24.3712 94.9988 25.2053 94.9988 26.1918C94.9988 27.1817 95.3323 28.0091 95.9906 28.6515C96.6483 29.2918 97.4912 29.6167 98.4983 29.6167C99.5424 29.6167 100.403 29.2918 101.055 28.6508C101.713 28.0051 102.047 27.1783 102.047 26.1918C102.047 25.2093 101.715 24.3752 101.059 23.7135C100.405 23.0532 99.5424 22.7184 98.4983 22.7184Z" fill="#11100E"/>
<path d="M189.563 41.8099V54.7206C188.681 56.3002 187.691 57.5004 186.62 58.2899C185.549 59.08 184.192 59.4801 182.588 59.4801C180.418 59.4801 178.761 58.5675 177.521 56.689C176.285 54.8198 175.658 52.1338 175.658 48.7069C175.658 45.3473 176.347 42.6959 177.705 40.8261C179.051 38.9695 180.85 38.0283 183.053 38.0283C185.674 38.0283 187.863 39.3004 189.563 41.8099ZM189.563 38.9922C187.801 36.9166 185.52 35.8655 182.774 35.8655C180.784 35.8655 179.039 36.4214 177.587 37.5177C176.138 38.6107 175.013 40.1511 174.243 42.0968C173.477 44.0353 173.088 46.3065 173.088 48.848C173.088 52.7795 173.923 55.9321 175.568 58.2186C177.229 60.5219 179.496 61.6895 182.307 61.6895C184.101 61.6895 185.647 61.2787 186.901 60.4686C188.001 59.753 188.921 58.8231 189.64 57.6988L189.85 61.1762H192.038V26.3538L189.563 26.0303V38.9922Z" fill="#7A7A7B"/>
<path d="M195.895 61.1738H198.373V36.3311H195.895V61.1738Z" fill="#7A7A7B"/>
<path d="M197.132 25.9138C196.586 25.9138 196.138 26.0888 195.802 26.433C195.461 26.7752 195.288 27.2098 195.288 27.7237C195.288 28.239 195.461 28.6736 195.802 29.0145C196.142 29.3586 196.589 29.5337 197.132 29.5337C197.67 29.5337 198.117 29.3593 198.461 29.0151C198.803 28.671 198.977 28.237 198.977 27.7237C198.977 27.2118 198.803 26.7771 198.461 26.433C198.12 26.0888 197.673 25.9138 197.132 25.9138Z" fill="#7A7A7B"/>
<path d="M214.559 39.6197C215.616 40.742 216.151 42.3156 216.151 44.2973C216.151 46.2744 215.602 47.8134 214.518 48.8705C213.439 49.9302 211.861 50.4667 209.828 50.4667C207.89 50.4667 206.327 49.9142 205.185 48.8232C204.042 47.7362 203.462 46.1805 203.462 44.2015C203.462 42.2837 204.004 40.7427 205.072 39.6203C206.139 38.502 207.756 37.9342 209.876 37.9342C211.932 37.9342 213.507 38.5014 214.559 39.6197ZM220.269 34.4687C218.981 34.9946 217.665 35.37 216.359 35.5857C215.064 35.8014 212.874 35.8919 209.828 35.8666C207.156 35.8666 204.982 36.6395 203.367 38.1645C201.754 39.6949 200.937 41.7252 200.937 44.2015C200.937 45.8803 201.274 47.3141 201.938 48.4644C202.568 49.5455 203.542 50.4534 204.838 51.1637C203.177 52.2913 202.335 53.6593 202.335 55.2329C202.335 56.503 202.876 57.5661 203.942 58.3948C204.994 59.2103 206.504 59.6237 208.429 59.6237H212.395C214.153 59.6237 215.541 59.9931 216.523 60.7213C217.485 61.4383 217.972 62.4508 217.972 63.7322C217.972 66.8941 215.312 68.497 210.064 68.497C208.066 68.497 206.489 68.3326 205.373 68.0091C204.28 67.6929 203.485 67.185 203.012 66.4993C202.535 65.8137 202.278 64.8498 202.247 63.633L202.242 63.4712H199.865V63.6376C199.865 66.1279 200.681 67.9505 202.292 69.0568C203.885 70.1519 206.5 70.707 210.064 70.707C213.502 70.707 216.123 70.0893 217.855 68.8698C219.608 67.6343 220.497 65.8583 220.497 63.5904C220.497 61.7318 219.783 60.2115 218.379 59.0705C216.986 57.9409 215.083 57.3677 212.723 57.3677H208.709C206.058 57.3677 204.769 56.5316 204.769 54.8116C204.769 54.2484 204.94 53.7112 205.276 53.2146C205.603 52.7273 206.072 52.3146 206.671 51.9878C207.626 52.3206 208.704 52.4897 209.876 52.4897C212.549 52.4897 214.706 51.7395 216.288 50.2604C217.872 48.7793 218.676 46.7883 218.676 44.3419C218.676 41.2725 217.459 39.0226 215.056 37.644C217.744 37.5881 219.768 37.3518 221.077 36.9424L221.238 36.8931L220.433 34.4008L220.269 34.4687Z" fill="#7A7A7B"/>
<path d="M223.009 61.1738H225.489V36.3311H223.009V61.1738Z" fill="#7A7A7B"/>
<path d="M224.246 25.9138C223.703 25.9138 223.257 26.0888 222.919 26.433C222.576 26.7771 222.402 27.2118 222.402 27.7237C222.402 28.237 222.576 28.671 222.919 29.0151C223.259 29.3586 223.706 29.5337 224.246 29.5337C224.786 29.5337 225.234 29.3593 225.578 29.0158C225.92 28.6736 226.093 28.239 226.093 27.7237C226.093 27.2098 225.92 26.7752 225.578 26.433C225.237 26.0882 224.788 25.9138 224.246 25.9138Z" fill="#7A7A7B"/>
<path d="M241.397 58.3247C240.121 59.0583 238.829 59.4304 237.556 59.4304C235.124 59.4304 233.942 58.0105 233.942 55.0889V38.4965H240.079L240.407 36.3311H233.942V30.1157L231.466 30.384V36.3311H227.405V38.4965H231.466V55.2294C231.466 57.3349 231.991 58.9538 233.027 60.0408C234.064 61.1332 235.51 61.687 237.325 61.687C239.153 61.687 240.878 61.1731 242.453 60.1593L242.586 60.0734L241.54 58.2422L241.397 58.3247Z" fill="#7A7A7B"/>
<path d="M250.104 59.5298C248.446 59.5298 247.135 59.0572 246.21 58.1226C245.281 57.19 244.811 55.8554 244.811 54.1553C244.811 52.1869 245.478 50.6925 246.797 49.7126C248.131 48.7221 250.077 48.2195 252.579 48.2195H257.08V55.0073C255.501 58.0081 253.154 59.5298 250.104 59.5298ZM260.028 58.5813C259.716 58.0148 259.559 57.0469 259.559 55.7043V43.6377C259.559 41.1055 258.906 39.1544 257.62 37.8404C256.334 36.5317 254.308 35.868 251.599 35.868C249.35 35.868 246.833 36.4086 244.119 37.4749L243.969 37.5335L244.687 39.5845L244.846 39.5212C247.276 38.5627 249.485 38.0774 251.412 38.0774C253.442 38.0774 254.908 38.534 255.772 39.436C256.64 40.3367 257.08 41.7985 257.08 43.7795V46.1952H252.252C249.18 46.1952 246.713 46.8935 244.92 48.2694C243.112 49.6567 242.195 51.6537 242.195 54.2045C242.195 56.4611 242.885 58.2937 244.248 59.6503C245.611 61.005 247.488 61.6919 249.826 61.6919C253.079 61.6919 255.631 60.344 257.417 57.6833C257.576 58.771 257.906 59.6244 258.401 60.2255C258.966 60.9058 259.803 61.3971 260.889 61.6866L261.04 61.7266L261.652 59.8793L261.505 59.8221C260.829 59.5565 260.332 59.1391 260.028 58.5813Z" fill="#7A7A7B"/>
<path d="M269.279 59.0569L269.125 59.1142C268.555 59.3239 267.993 59.4304 267.456 59.4304C266.156 59.4304 265.523 58.6549 265.523 57.0599V26.0279L263.043 26.3514V57.1545C263.043 58.6336 263.421 59.7712 264.164 60.5354C264.909 61.2996 265.938 61.687 267.224 61.687C268.081 61.687 268.969 61.4773 269.86 61.0626L270 60.998L269.279 59.0569Z" fill="#7A7A7B"/>
<path d="M70.027 57.7655C65.8545 57.7655 63.8259 54.6861 63.8259 48.3509C63.8259 41.9851 65.8697 38.8898 70.0733 38.8898C74.2132 38.8898 76.226 41.9698 76.226 48.305C76.226 54.6708 74.198 57.7655 70.027 57.7655ZM70.0733 34.4824C67.6132 34.4824 65.4675 35.0702 63.6955 36.2305C61.9216 37.3947 60.5507 39.0456 59.6217 41.1364C58.6974 43.2126 58.2283 45.6397 58.2283 48.3509C58.2283 52.5599 59.271 55.9475 61.3288 58.4212C63.4064 60.9114 66.3329 62.1729 70.027 62.1729C72.4552 62.1729 74.5844 61.5844 76.3544 60.4235C78.125 59.2639 79.4953 57.6144 80.4289 55.5208C81.3532 53.4406 81.8217 51.0129 81.8217 48.305C81.8217 44.096 80.7875 40.7077 78.7483 38.2354C76.6912 35.7452 73.7726 34.4824 70.0733 34.4824Z" fill="#11100E"/>
<path d="M92.0604 57.3994C91.6244 57.5764 91.1189 57.6663 90.5591 57.6663C90.1039 57.6663 89.8029 57.5578 89.6381 57.3374C89.5078 57.1617 89.3516 56.7889 89.3516 56.0161V24.1333L84.0994 24.7663V56.1113C84.0994 58.0005 84.6181 59.4989 85.641 60.5633C86.6659 61.6317 88.0766 62.1729 89.8333 62.1729C91.1831 62.1729 92.4382 61.8606 93.5631 61.2456L93.8661 61.0792L92.4376 57.2469L92.0604 57.3994Z" fill="#11100E"/>
<path d="M95.918 61.5869H101.176V35.064H95.918V61.5869Z" fill="#11100E"/>
<path d="M121.702 35.0665L115.348 55.8333L108.947 35.0665H103.245L112.349 61.5894H118.3L127.256 35.0665H121.702Z" fill="#11100E"/>
<path d="M135.869 58.0051C134.533 58.0051 133.519 57.653 132.856 56.958C132.189 56.2571 131.85 55.184 131.85 53.7688C131.85 50.4897 134.038 48.8961 138.537 48.8961H141.488V54.2987C140.101 56.7923 138.261 58.0051 135.869 58.0051ZM147.205 57.2722C146.9 56.8409 146.746 56.1386 146.746 55.182V43.421C146.746 40.5899 145.954 38.3686 144.395 36.8196C142.841 35.2686 140.478 34.4818 137.373 34.4818C134.616 34.4818 131.599 35.0815 128.408 36.2644L128.043 36.3996L129.411 40.4129L129.785 40.2877C134.944 38.559 138.662 38.5397 140.31 40.0115C141.092 40.7084 141.488 41.9219 141.488 43.618V45.1211H137.956C134.296 45.1211 131.417 45.886 129.398 47.3964C127.345 48.9334 126.304 51.1607 126.304 54.0145C126.304 56.4262 127.079 58.4112 128.608 59.9116C130.131 61.4113 132.231 62.1722 134.85 62.1722C138.058 62.1722 140.578 61.0239 142.352 58.7553C142.761 59.7179 143.323 60.4628 144.029 60.9747C144.894 61.5991 146.032 62.0005 147.415 62.1695L147.738 62.2095L148.979 58.4085L148.619 58.276C147.99 58.0451 147.515 57.7062 147.205 57.2722Z" fill="#11100E"/>
<path d="M168.409 48.586C166.963 47.3159 164.762 46.3014 161.873 45.5731C159.86 45.036 158.46 44.4834 157.711 43.9329C157.021 43.419 156.685 42.7254 156.685 41.8115C156.685 40.8968 157.043 40.1965 157.781 39.6713C158.547 39.1195 159.627 38.8399 160.993 38.8399C162.108 38.8399 163.184 39.0143 164.19 39.3578C165.207 39.7053 166.296 40.2498 167.426 40.9754L167.753 41.1857L170.07 37.7196L169.773 37.4913C168.481 36.4928 167.106 35.7339 165.685 35.2347C164.256 34.7341 162.629 34.4805 160.848 34.4805C159.057 34.4805 157.413 34.7946 155.963 35.4151C154.5 36.0394 153.334 36.9381 152.498 38.085C151.659 39.2386 151.234 40.5407 151.234 41.9552C151.234 43.913 151.884 45.5525 153.168 46.8286C154.428 48.0747 156.471 49.0785 159.241 49.8094C160.903 50.2614 162.172 50.6888 163.009 51.0769C163.815 51.457 164.381 51.8863 164.689 52.3516C165 52.8243 165.158 53.4646 165.158 54.2548C165.158 55.3318 164.728 56.1586 163.843 56.7836C162.931 57.434 161.661 57.7635 160.072 57.7635C157.557 57.7635 155.222 56.9527 153.133 55.3538L152.838 55.1281L149.954 58.4412L150.253 58.7041C152.871 61.0046 156.206 62.1709 160.168 62.1709C163.052 62.1709 165.535 61.4746 167.548 60.1013C169.611 58.6941 170.656 56.6292 170.656 53.9632C170.656 51.7059 169.9 49.8973 168.409 48.586Z" fill="#11100E"/>
<path d="M10.6963 32.7635C14.4949 20.6849 20.4598 15.9121 28.5836 18.4476L30.6771 11.7916C26.2929 10.411 22.2132 10.248 18.4245 11.3057C14.6153 12.3728 11.2793 14.5115 8.43281 17.7314C5.58173 20.9492 3.3837 25.0198 1.83476 29.9424C-0.563085 37.5656 -0.610064 44.187 1.69052 49.8092C3.9964 55.4255 8.45796 59.2877 15.0778 61.3945L17.1726 54.7379C9.05808 52.1544 6.90239 44.828 10.6963 32.7635Z" fill="#BDBA1A"/>
<path d="M39.4519 51.5617C35.6355 63.635 29.6653 68.3998 21.5442 65.853L19.4414 72.5043C23.8216 73.8916 27.902 74.0613 31.6933 73.0089C35.5038 71.9472 38.8432 69.8124 41.6936 66.5972C44.55 63.3833 46.7546 59.3154 48.3089 54.3942C50.718 46.7743 50.7729 40.1529 48.4796 34.5273C46.1843 28.9097 41.7274 25.0415 35.1101 22.9241L33.0074 29.5787C41.1173 32.1742 43.2624 39.5025 39.4519 51.5617Z" fill="#BDBA1A"/>
<path d="M30.6783 11.7946L35.1101 22.9279L19.4368 72.5234L15.0791 61.3975L30.6783 11.7946Z" fill="#6B6921"/>
</svg>
